<svg width="25" height="25" viewBox="0 0 25 25" fill="none" xmlns="http://www.w3.org/2000/svg">
<path d="M14.3021 21.8749C14.1189 22.1906 13.8561 22.4527 13.5398 22.6348C13.2236 22.817 12.865 22.9129 12.5 22.9129C12.135 22.9129 11.7764 22.817 11.4602 22.6348C11.1439 22.4527 10.8811 22.1906 10.6979 21.8749M18.75 8.33325C18.75 6.67565 18.0915 5.08594 16.9194 3.91383C15.7473 2.74173 14.1576 2.08325 12.5 2.08325C10.8424 2.08325 9.25268 2.74173 8.08058 3.91383C6.90848 5.08594 6.25 6.67565 6.25 8.33325C6.25 15.6249 3.125 17.7083 3.125 17.7083H21.875C21.875 17.7083 18.75 15.6249 18.75 8.33325Z" stroke="white" stroke-width="1.5" stroke-linecap="round" stroke-linejoin="round"/>
</svg>
