<svg width="25" height="25" viewBox="0 0 25 25" fill="none" xmlns="http://www.w3.org/2000/svg">
<path d="M16.6667 4.16659H18.75C19.3025 4.16659 19.8324 4.38608 20.2231 4.77678C20.6138 5.16748 20.8333 5.69738 20.8333 6.24992V20.8333C20.8333 21.3858 20.6138 21.9157 20.2231 22.3064C19.8324 22.6971 19.3025 22.9166 18.75 22.9166H6.25C5.69746 22.9166 5.16756 22.6971 4.77686 22.3064C4.38616 21.9157 4.16666 21.3858 4.16666 20.8333V6.24992C4.16666 5.69738 4.38616 5.16748 4.77686 4.77678C5.16756 4.38608 5.69746 4.16659 6.25 4.16659H8.33333M9.375 2.08325H15.625C16.2003 2.08325 16.6667 2.54962 16.6667 3.12492V5.20825C16.6667 5.78355 16.2003 6.24992 15.625 6.24992H9.375C8.7997 6.24992 8.33333 5.78355 8.33333 5.20825V3.12492C8.33333 2.54962 8.7997 2.08325 9.375 2.08325Z" stroke="white" stroke-width="1.5" stroke-linecap="round" stroke-linejoin="round"/>
</svg>
