<svg width="283" height="297" viewBox="0 0 283 297" fill="none" xmlns="http://www.w3.org/2000/svg">
<path d="M141.5 79.6831C141.5 79.6831 103.537 130.39 103.537 159.366C103.537 183.271 120.793 202.829 141.5 202.829C162.207 202.829 179.463 183.271 179.463 159.366C179.463 130.39 141.5 79.6831 141.5 79.6831Z" stroke="black" stroke-width="15" stroke-linejoin="round"/>
<path d="M75.9268 195.585C75.9268 195.585 55.2195 170.232 55.2195 137.634C55.2195 105.037 75.9268 76.061 103.537 61.5732" stroke="black" stroke-width="6" stroke-linecap="round"/>
<path d="M207.073 195.585C207.073 195.585 227.78 170.232 227.78 137.634C227.78 105.037 207.073 76.061 179.463 61.5732" stroke="black" stroke-width="6" stroke-linecap="round"/>
<path d="M48.317 224.561C48.317 224.561 20.7073 191.963 20.7073 148.5C20.7073 105.037 48.317 65.1951 82.8292 43.4634" stroke="black" stroke-width="5" stroke-linecap="round"/>
<path d="M234.683 224.561C234.683 224.561 262.293 191.963 262.293 148.5C262.293 105.037 234.683 65.1951 200.171 43.4634" stroke="black" stroke-width="5" stroke-linecap="round"/>
</svg>
