<svg width="60" height="60" viewBox="0 0 60 60" fill="none" xmlns="http://www.w3.org/2000/svg">
<path d="M29.98 3.48761C29.7481 3.48879 29.5188 3.53578 29.3051 3.62587C29.0915 3.71597 28.8977 3.8474 28.735 4.01261L0.405001 32.7476C0.144983 33.0114 -0.000537011 33.3672 1.48924e-06 33.7376C0.000662422 34.1127 0.149955 34.4722 0.415175 34.7374C0.680396 35.0026 1.03992 35.1519 1.415 35.1526H6.675V55.3401C6.675 55.9901 7.2 56.5151 7.85 56.5151H27.72V47.3076L20.0925 39.6701C19.3438 39.9885 18.5386 40.1526 17.725 40.1526C16.1182 40.1513 14.5777 39.5119 13.4423 38.375C12.3068 37.2381 11.6693 35.6969 11.67 34.0901C11.6707 33.1929 11.8708 32.3071 12.2558 31.4967C12.6408 30.6863 13.201 29.9716 13.8961 29.4042C14.5911 28.8369 15.4036 28.4311 16.2746 28.2162C17.1457 28.0013 18.0537 27.9826 18.9328 28.1616C19.812 28.3406 20.6404 28.7127 21.3581 29.251C22.0759 29.7893 22.665 30.4805 23.083 31.2744C23.5009 32.0683 23.7372 32.9452 23.7747 33.8416C23.8122 34.738 23.6501 35.6315 23.3 36.4576L27.72 40.8776V27.4401C26.4171 26.9115 25.3384 25.9465 24.6683 24.7104C23.9982 23.4743 23.7785 22.0438 24.0466 20.6635C24.3147 19.2832 25.0541 18.039 26.1383 17.1437C27.2224 16.2483 28.5839 15.7575 29.99 15.7551C30.7858 15.7558 31.5737 15.9132 32.3087 16.2183C33.0437 16.5235 33.7113 16.9704 34.2736 17.5336C34.8359 18.0968 35.2817 18.7652 35.5856 19.5007C35.8896 20.2361 36.0457 21.0243 36.045 21.8201C36.0453 23.0272 35.6852 24.207 35.0109 25.2082C34.3366 26.2095 33.3787 26.9866 32.26 27.4401V40.8776L36.675 36.4576C36.3575 35.7087 36.1942 34.9035 36.195 34.0901C36.195 32.4836 36.8332 30.9428 37.9692 29.8068C39.1052 28.6708 40.646 28.0326 42.2525 28.0326C43.859 28.0326 45.3998 28.6708 46.5358 29.8068C47.6718 30.9428 48.31 32.4836 48.31 34.0901C48.3107 35.6969 47.6732 37.2381 46.5377 38.375C45.4023 39.5119 43.8618 40.1513 42.255 40.1526C41.4414 40.1526 40.6362 39.9885 39.8875 39.6701L32.2625 47.3076V56.5151H52.13C52.4416 56.5151 52.7405 56.3913 52.9608 56.1709C53.1812 55.9506 53.305 55.6517 53.305 55.3401V35.1501H58.585C58.9551 35.149 59.3103 35.0038 59.575 34.7451C59.8421 34.4821 59.9941 34.124 59.9979 33.7492C60.0016 33.3744 59.8568 33.0134 59.595 32.7451L53.305 26.3126V16.1776C53.305 15.5276 52.78 14.9951 52.13 14.9951H47.2175C47.0625 14.9954 46.9092 15.0263 46.7661 15.0859C46.6231 15.1455 46.4932 15.2327 46.3838 15.3425C46.2745 15.4523 46.1879 15.5826 46.1289 15.7258C46.0699 15.8691 46.0397 16.0226 46.04 16.1776V18.9351L31.25 4.01011C31.0842 3.84212 30.8863 3.7091 30.6682 3.61893C30.4501 3.52875 30.216 3.48575 29.98 3.48761ZM29.99 19.3876C29.3469 19.3876 28.73 19.6431 28.2753 20.0979C27.8205 20.5526 27.565 21.1695 27.565 21.8126C27.565 22.4558 27.8205 23.0726 28.2753 23.5273C28.73 23.9821 29.3469 24.2376 29.99 24.2376C30.308 24.2379 30.623 24.1756 30.9169 24.0541C31.2108 23.9326 31.4778 23.7544 31.7028 23.5297C31.9278 23.3049 32.1063 23.038 32.2281 22.7443C32.3498 22.4505 32.4125 22.1356 32.4125 21.8176C32.4128 21.4991 32.3504 21.1837 32.2289 20.8894C32.1073 20.5951 31.929 20.3276 31.704 20.1021C31.4791 19.8767 31.2119 19.6978 30.9178 19.5757C30.6237 19.4535 30.3085 19.3879 29.99 19.3876ZM17.725 31.6676C17.4068 31.6673 17.0916 31.7297 16.7976 31.8513C16.5035 31.973 16.2363 32.1514 16.0113 32.3764C15.7863 32.6014 15.6079 32.8686 15.4862 33.1627C15.3646 33.4567 15.3022 33.7719 15.3025 34.0901C15.2876 34.4175 15.3393 34.7445 15.4543 35.0514C15.5693 35.3582 15.7454 35.6386 15.9718 35.8755C16.1982 36.1125 16.4703 36.3011 16.7716 36.4299C17.073 36.5588 17.3973 36.6252 17.725 36.6252C18.0527 36.6252 18.3771 36.5588 18.6784 36.4299C18.9797 36.3011 19.2518 36.1125 19.4782 35.8755C19.7046 35.6386 19.8807 35.3582 19.9957 35.0514C20.1107 34.7445 20.1624 34.4175 20.1475 34.0901C20.1478 33.7717 20.0853 33.4563 19.9635 33.1621C19.8417 32.8679 19.6631 32.6006 19.4378 32.3755C19.2125 32.1505 18.9451 31.9721 18.6507 31.8506C18.3564 31.7291 18.0434 31.6669 17.725 31.6676ZM42.255 31.6676C41.7753 31.6676 41.3063 31.8099 40.9075 32.0765C40.5086 32.343 40.1978 32.7219 40.0144 33.1652C39.8309 33.6084 39.783 34.0961 39.8768 34.5666C39.9706 35.0371 40.2018 35.4692 40.5412 35.8082C40.8805 36.1473 41.3129 36.378 41.7834 36.4713C42.254 36.5646 42.7417 36.5162 43.1847 36.3323C43.6278 36.1484 44.0064 35.8372 44.2725 35.438C44.5387 35.0389 44.6805 34.5698 44.68 34.0901C44.6803 33.7717 44.6178 33.4563 44.496 33.1621C44.3743 32.8679 44.1956 32.6006 43.9703 32.3755C43.745 32.1505 43.4776 31.9721 43.1832 31.8506C42.8889 31.7291 42.5734 31.6669 42.255 31.6676Z" fill="#F8FFF6"/>
</svg>
