<svg width="25" height="25" viewBox="0 0 25 25" fill="none" xmlns="http://www.w3.org/2000/svg">
<path fill-rule="evenodd" clip-rule="evenodd" d="M20.8333 4.16667V20.8333H4.16667V4.16667H20.8333ZM11.1816 8.33333H9.55845L6.47683 16.6667H7.94119L8.52298 15.0376H12.2119L12.7812 16.6667H14.3338L11.1816 8.33333ZM16.9332 8.33333H15.4747V16.6667H16.9332V8.33333ZM10.3577 9.73146L11.8105 13.8889H8.92806L10.3577 9.73146ZM22.2222 16.6667H25V19.4444H22.2222V16.6667ZM5.55556 22.2222H8.33333V25H5.55556V22.2222ZM11.1111 22.2222H13.8889V25H11.1111V22.2222ZM5.55556 0H8.33333V2.77778H5.55556V0ZM16.6667 22.2222H19.4444V25H16.6667V22.2222ZM11.1111 0H13.8889V2.77778H11.1111V0ZM16.6667 0H19.4444V2.77778H16.6667V0ZM22.2222 11.1111H25V13.8889H22.2222V11.1111ZM0 16.6667H2.77778V19.4444H0V16.6667ZM22.2222 5.55556H25V8.33333H22.2222V5.55556ZM0 11.1111H2.77778V13.8889H0V11.1111ZM0 5.55556H2.77778V8.33333H0V5.55556Z" fill="white"/>
</svg>
