<svg width="63" height="64" viewBox="0 0 63 64" fill="none" xmlns="http://www.w3.org/2000/svg">
<path d="M32.3261 33.7274C32.3261 33.7274 35.6651 27.6378 42.7588 26.2596C42.7588 26.2596 32.4654 21.8946 21.6844 26.2596C21.6844 26.2596 27.5265 26.9499 32.3261 33.7274Z" fill="#F5F7F6"/>
<path d="M32.44 38.406C32.44 38.406 32.5435 39.2102 33.031 39.3636C33.5186 39.517 47.7757 41.0347 54.9222 25.8573C54.9222 25.8573 54.2089 25.2716 51.7057 27.1868C51.7057 27.1868 45.3549 34.1549 40.0804 33.869C40.0804 33.869 39.7934 32.9835 45.9226 30.0665C45.9226 30.0665 47.3726 28.8788 46.1484 28.4721C46.1484 28.4721 39.3122 30.1618 36.2307 32.4722C36.2307 32.4722 34.3523 33.1996 32.44 38.4083V38.406Z" fill="#F5F7F6"/>
<path d="M32.0179 38.4087C32.0179 38.4087 31.9145 39.2129 31.427 39.3663C30.9394 39.5197 16.6822 41.0374 9.53573 25.86C9.53573 25.86 10.2491 25.2743 12.7523 27.1895C12.7523 27.1895 19.1031 34.1576 24.3775 33.8717C24.3775 33.8717 24.6646 32.9862 18.5354 30.0692C18.5354 30.0692 17.0854 28.8815 18.3095 28.4748C18.3095 28.4748 25.1458 30.1645 28.2273 32.4748C28.2273 32.4748 30.1057 33.2023 32.0179 38.411V38.4087Z" fill="#F5F7F6"/>
<path d="M32.8326 24.3187C32.8326 24.3187 33.5734 16.7114 29.958 14.1059C26.3404 11.5027 18.9448 13.3389 17.4843 10.6846C17.4843 10.6846 17.8557 27.0241 30.9542 23.1682C30.9542 23.1682 29.215 16.7346 22.5392 15.2541C22.5392 15.2541 30.1036 15.7515 31.8934 24.3489L32.8326 24.3164V24.3187Z" fill="#F8FFF6"/>
<path d="M27.2184 0C27.2184 0 27.4843 1.98027 32.0644 5.00646C36.6444 8.03264 33.8858 12.7951 32.8305 14.5313C32.8305 14.5313 33.7233 9.19477 29.4789 5.63168C29.4789 5.63168 32.9107 8.7857 32.1108 14.5452C32.1108 14.5452 23.814 11.8514 27.2184 0Z" fill="#F8FFF6"/>
<path d="M33.2547 22.8637C33.2547 22.8637 34.1834 14.4359 42.4148 12.7252C42.4148 12.7252 36.9884 13.8479 34.8314 19.877C34.8314 19.877 42.9255 23.6051 46.2877 13.5945C46.2877 13.5945 47.2607 9.38063 47.1235 8.74146C47.1235 8.74146 45.6398 10.401 38.8668 10.4521C38.8668 10.4521 31.771 10.4265 33.2547 22.8637Z" fill="#F8FFF6"/>
<path d="M58.658 47.2754C58.658 47.2754 52.9552 45.0116 48.1662 49.8159L45.2177 47.4335C45.2177 47.4335 49.8483 40.7791 60.5723 43.043L58.6601 47.2754H58.658Z" fill="#F5F7F6"/>
<path d="M62.398 36.463L61.3258 40.6629C61.3258 40.6629 49.1476 37.0417 42.9509 45.6508L39.1855 43.9192C39.1855 43.9192 46.9547 32.7372 62.4001 36.4653L62.398 36.463Z" fill="#F5F7F6"/>
<path d="M51.959 55.466L56.6783 49.7972C56.6783 49.7972 51.864 48.9581 50.148 51.896L51.959 55.466Z" fill="#F5F7F6"/>
<path d="M3.74422 47.2244C3.74422 47.2244 9.44708 44.9606 14.2361 49.7648L17.1846 47.3825C17.1846 47.3825 12.5539 40.7281 1.8299 42.9919L3.74211 47.2244H3.74422Z" fill="#F5F7F6"/>
<path d="M0.00211066 36.4095L1.0743 40.6095C1.0743 40.6095 13.2525 36.9883 19.4493 45.5973L23.2146 43.8657C23.2146 43.8657 15.4454 32.6837 0 36.4118L0.00211066 36.4095Z" fill="#F5F7F6"/>
<path d="M10.4412 55.4126L5.72186 49.7437C5.72186 49.7437 10.5362 48.9046 12.2521 51.8425L10.4412 55.4126Z" fill="#F5F7F6"/>
<path d="M24.0736 63.2872C24.0736 63.2872 31.2243 63.8125 37.8981 63.1827C37.8981 63.1827 31.0344 55.3081 24.0736 63.2872Z" fill="#F5F7F6"/>
<path d="M21.638 61.4025L17.9993 59.729C17.9993 59.729 30.1606 42.9385 44.1159 59.9823L40.7073 61.5047C40.7073 61.5047 31.1272 49.4325 21.638 61.4025Z" fill="#F5F7F6"/>
<path d="M15.6058 58.511C15.6058 58.511 29.1939 38.3736 46.2371 58.3599L49.3228 56.3308C49.3228 56.3308 33.5692 30.8151 12.8409 56.3308L15.6037 58.511H15.6058Z" fill="#F5F7F6"/>
</svg>
