<svg width="64" height="71" viewBox="0 0 64 71" fill="none" xmlns="http://www.w3.org/2000/svg">
<path d="M30.9357 67.0696H21.6804H19.7152H17.116V71H32.9009V67.0696H31.5696H30.9357Z" fill="#F8FFF6"/>
<path d="M27.6394 7.86078H26.3081V23.6456H27.6394V7.86078Z" fill="#F8FFF6"/>
<path d="M33.6616 14.3267C32.2669 15.341 31.3794 16.9893 31.2526 18.7643V18.8912C31.1258 21.3634 30.8722 22.9483 30.0482 23.6456H33.091C33.6617 22.1241 33.7884 20.3491 33.8518 19.0179V18.8912C33.9786 17.2428 35.2465 16.0384 36.4509 16.0384C36.2607 15.1509 36.0707 14.3267 35.817 13.6295C35.183 13.5027 34.4223 13.7562 33.6616 14.3267Z" fill="#F8FFF6"/>
<path d="M27.9562 24.9767H27.6392H26.3079H17.116V27.5758H19.7152V32.8375V34.1688H18.3839V35.5001H9.19195C2.34559 35.5001 1.45805 39.2403 1.3313 40.4448C1.3313 40.5716 1.3313 40.6351 1.3313 40.7618V43.3609V44.6922H0V47.2914H7.86078V44.6922H6.52948V42.9806C6.52948 42.9806 6.52948 40.762 9.12857 40.762H18.3205V42.0931H19.6518L20.9831 43.4244V43.6779V65.7387H30.1751V43.3606L31.5062 42.0295V27.6392H32.8375V25.0401H32.3304H27.9564L27.9562 24.9767Z" fill="#F8FFF6"/>
<path d="M54.7714 42.1562C53.9473 41.4588 52.9964 40.6982 51.9821 39.8108L51.6651 39.5571C44.3749 33.091 44.3749 33.091 41.2052 18.5742L40.5713 15.7214C38.8597 7.73389 36.0705 2.78922 32.2669 0.887533C31.0625 0.253638 29.0973 0 28.1464 0C25.5473 0 23.8991 1.3313 23.8991 3.55C23.8991 5.19818 25.2304 6.52948 26.8786 6.52948C28.5268 6.52948 29.8581 5.19818 29.8581 3.55C29.8581 3.35987 29.8581 3.16961 29.7945 2.97948C30.1749 3.04299 30.6187 3.16974 31.0623 3.42325C33.1543 4.43753 36.007 7.54377 37.9088 16.3555L38.5427 19.2082C41.7758 34.359 41.8391 34.6126 49.89 41.6492L50.207 41.9029C51.2213 42.7903 52.1722 43.6144 53.0597 44.3117C56.9268 47.4813 59.0187 49.2564 60.7938 55.5323C60.9839 56.1662 61.5544 56.5465 62.1249 56.5465C62.2517 56.5465 62.3786 56.5465 62.5053 56.4831C63.266 56.2929 63.6464 55.5322 63.4562 54.7714C61.3643 47.6081 58.7651 45.4526 54.7714 42.1562Z" fill="#F8FFF6"/>
</svg>
