<svg width="271" height="240" viewBox="0 0 271 240" fill="none" xmlns="http://www.w3.org/2000/svg">
<path d="M67.7501 141.538C43.1137 141.538 24.6365 123.077 24.6365 98.4614C24.6365 75.3845 41.574 56.9229 64.6706 55.3845C69.2899 36.9229 86.2274 24.6152 107.784 24.6152C123.182 24.6152 137.04 32.3075 146.279 44.6152C152.438 41.5383 159.521 39.9999 166.296 39.9999C188.468 39.9999 206.33 57.846 206.33 79.9999C206.33 81.5383 206.33 83.0768 206.022 84.6152C223.267 89.2306 237.125 104.615 237.125 123.077C237.125 141.538 221.727 156.923 203.25 156.923H67.7501V141.538Z" stroke="black" stroke-width="15" stroke-linecap="round" stroke-linejoin="round"/>
<path d="M73.909 178.461L61.5908 221.538" stroke="black" stroke-width="5" stroke-linecap="round"/>
<path d="M110.864 178.461L98.5454 221.538" stroke="black" stroke-width="5" stroke-linecap="round"/>
<path d="M147.818 178.461L135.5 221.538" stroke="black" stroke-width="5" stroke-linecap="round"/>
<path d="M184.773 178.461L172.455 221.538" stroke="black" stroke-width="5" stroke-linecap="round"/>
<path d="M92.3863 190.769L80.0681 233.846" stroke="black" stroke-width="4" stroke-linecap="round"/>
<path d="M166.295 190.769L153.977 233.846" stroke="black" stroke-width="4" stroke-linecap="round"/>
</svg>
