<svg width="266" height="218" viewBox="0 0 266 218" fill="none" xmlns="http://www.w3.org/2000/svg">
<path d="M24.1819 47.8534C68.5152 40.764 112.849 40.764 157.182 47.8534C181.364 53.1705 197.485 53.1705 205.546 47.8534C213.606 42.5363 215.621 36.3331 211.591 29.2436C207.561 22.1542 199.5 19.4957 187.409 21.268C175.318 23.0404 169.273 29.2436 169.273 39.8778" stroke="black" stroke-width="10" stroke-linecap="round"/>
<path d="M24.1819 85.0733C78.591 74.4391 141.061 74.4391 211.591 85.0733C231.742 90.3903 243.833 90.3903 247.864 85.0733" stroke="black" stroke-width="10" stroke-linecap="round"/>
<path d="M24.1819 138.244C72.5455 127.61 126.955 127.61 187.409 138.244C211.591 143.561 227.712 143.561 235.773 138.244C243.833 132.927 245.849 126.724 241.818 119.634C237.788 112.545 229.727 109.886 217.636 111.659C205.546 113.431 199.5 119.634 199.5 130.268" stroke="black" stroke-width="10" stroke-linecap="round"/>
<path d="M48.3635 175.464C88.6666 166.602 130.985 166.602 175.318 175.464C191.439 180.781 199.5 180.781 199.5 175.464" stroke="black" stroke-width="10" stroke-linecap="round"/>
</svg>
